<svg xmlns="http://www.w3.org/2000/svg" xml:space="preserve" width="640" height="480" viewBox="0 0 640 480" font-family="Helvetica, Arial, sans-serif">

  <text x="320" y="42" text-anchor="middle" font-size="16" font-weight="bold" fill="#333333">MS MARCO Passage Ranking (Test MRR@10)</text>

  <!-- gridlines: 0..0.4 -> y 380..100 (700px per unit) -->
  <g stroke="#E6E6E6" stroke-width="1">
    <line x1="70" y1="310" x2="600" y2="310"/>
    <line x1="70" y1="240" x2="600" y2="240"/>
    <line x1="70" y1="170" x2="600" y2="170"/>
    <line x1="70" y1="100" x2="600" y2="100"/>
  </g>
  <g font-size="11.5" fill="#777777" text-anchor="end">
    <text x="62" y="384">0</text>
    <text x="62" y="314">0.1</text>
    <text x="62" y="244">0.2</text>
    <text x="62" y="174">0.3</text>
    <text x="62" y="104">0.4</text>
  </g>
  <line x1="70" y1="80" x2="70" y2="380" stroke="#999999" stroke-width="1.5"/>
  <line x1="70" y1="380" x2="600" y2="380" stroke="#999999" stroke-width="1.5"/>

  <!-- bars -->
  <rect x="110" y="263.1" width="120" height="116.9" fill="#C9CDD1"/>
  <text x="170" y="250" text-anchor="middle" font-size="15" font-weight="bold" fill="#6B7075">0.167</text>
  <text x="170" y="404" text-anchor="middle" font-size="13" fill="#444444">BM25</text>

  <rect x="270" y="183.3" width="120" height="196.7" fill="#7FBFDD"/>
  <text x="330" y="170" text-anchor="middle" font-size="15" font-weight="bold" fill="#33759B">0.281</text>
  <text x="330" y="404" text-anchor="middle" font-size="13" fill="#444444">IRNet</text>
  <text x="330" y="422" text-anchor="middle" font-size="10.5" fill="#888888">best pre-BERT</text>

  <rect x="430" y="128.7" width="120" height="251.3" fill="#E87E2E"/>
  <text x="490" y="115" text-anchor="middle" font-size="15" font-weight="bold" fill="#B35A0E">0.359</text>
  <text x="490" y="404" text-anchor="middle" font-size="13" fill="#444444">BERT</text>
  <text x="490" y="422" text-anchor="middle" font-size="10.5" fill="#888888">Nogueira &#38; Cho, 2019</text>

  <!-- annotation -->
  <path d="M330,160 L330,95 L490,95" fill="none" stroke="#B35A0E" stroke-width="1.2" stroke-dasharray="4,3"/>
  <text x="410" y="86" text-anchor="middle" font-size="12.5" font-weight="bold" fill="#B35A0E">+30% relative over IRNet &#183; ~2.15&#215; BM25</text>

  <text x="320" y="458" text-anchor="middle" font-size="10.5" fill="#999999">MS MARCO leaderboard, January 2019</text>
</svg>
