<svg xmlns="http://www.w3.org/2000/svg" xml:space="preserve" width="640" height="480" viewBox="0 0 640 480" font-family="Helvetica, Arial, sans-serif">

  <text x="320" y="42" text-anchor="middle" font-size="16" font-weight="bold" fill="#333333">MRR@10 &#8212; MS MARCO passage (dev)</text>

  <!-- gridlines + y axis -->
  <g stroke="#E6E6E6" stroke-width="1">
    <line x1="70" y1="300" x2="600" y2="300"/>
    <line x1="70" y1="220" x2="600" y2="220"/>
    <line x1="70" y1="140" x2="600" y2="140"/>
  </g>
  <g font-size="11.5" fill="#777777" text-anchor="end">
    <text x="62" y="384">0</text>
    <text x="62" y="304">0.1</text>
    <text x="62" y="224">0.2</text>
    <text x="62" y="144">0.3</text>
  </g>
  <line x1="70" y1="70" x2="70" y2="380" stroke="#999999" stroke-width="1.5"/>
  <line x1="70" y1="380" x2="600" y2="380" stroke="#999999" stroke-width="1.5"/>

  <!-- bars: scale 0.35 -> 280px tall plot, baseline y=380 -->
  <rect x="100" y="232.8" width="120" height="147.2" fill="#C9CDD1"/>
  <text x="160" y="220" text-anchor="middle" font-size="15" font-weight="bold" fill="#6B7075">0.184</text>
  <text x="160" y="406" text-anchor="middle" font-size="13" fill="#444444">BM25</text>

  <rect x="260" y="185.6" width="120" height="194.4" fill="#7FBFDD"/>
  <text x="320" y="173" text-anchor="middle" font-size="15" font-weight="bold" fill="#33759B">0.243</text>
  <text x="320" y="406" text-anchor="middle" font-size="13" fill="#444444">DeepCT + BM25</text>

  <rect x="420" y="119.2" width="120" height="260.8" fill="#E87E2E"/>
  <text x="480" y="106" text-anchor="middle" font-size="15" font-weight="bold" fill="#B35A0E">0.326</text>
  <text x="480" y="406" text-anchor="middle" font-size="13" fill="#444444">DeepImpact</text>

  <!-- +77% annotation -->
  <path d="M160,226 L160,86 L480,86 L480,112" fill="none" stroke="#B35A0E" stroke-width="1.2" stroke-dasharray="4,3"/>
  <text x="320" y="78" text-anchor="middle" font-size="12.5" font-weight="bold" fill="#B35A0E">+77% over BM25</text>

  <text x="320" y="446" text-anchor="middle" font-size="10.5" fill="#999999">Methods: Dai and Callan, 2019; Mallia et al., 2021 &#183; Numbers: Lin et al., 2021, Tables 34 &amp; 36</text>
</svg>
